<svg width="24" height="25" viewBox="0 0 24 25" fill="none" xmlns="http://www.w3.org/2000/svg">
<path d="M11 17.6431H7C5.61667 17.6431 4.43767 17.1554 3.463 16.1801C2.48767 15.2054 2 14.0264 2 12.6431C2 11.2597 2.48767 10.0804 3.463 9.10507C4.43767 8.1304 5.61667 7.64307 7 7.64307H11V9.64307H7C6.16667 9.64307 5.45833 9.93473 4.875 10.5181C4.29167 11.1014 4 11.8097 4 12.6431C4 13.4764 4.29167 14.1847 4.875 14.7681C5.45833 15.3514 6.16667 15.6431 7 15.6431H11V17.6431ZM8 13.6431V11.6431H16V13.6431H8ZM13 17.6431V15.6431H17C17.8333 15.6431 18.5417 15.3514 19.125 14.7681C19.7083 14.1847 20 13.4764 20 12.6431C20 11.8097 19.7083 11.1014 19.125 10.5181C18.5417 9.93473 17.8333 9.64307 17 9.64307H13V7.64307H17C18.3833 7.64307 19.5627 8.1304 20.538 9.10507C21.5127 10.0804 22 11.2597 22 12.6431C22 14.0264 21.5127 15.2054 20.538 16.1801C19.5627 17.1554 18.3833 17.6431 17 17.6431H13Z" fill="#1E1E1E"/>
</svg>
