<svg width="22" height="22" viewBox="0 0 22 22" fill="none" xmlns="http://www.w3.org/2000/svg">
<path d="M11 0.143066C5.20156 0.143066 0.5 4.9665 0.5 10.9103C0.5 15.6681 3.50937 19.6993 7.68125 21.1243C7.73977 21.137 7.79949 21.1433 7.85938 21.1431C8.24844 21.1431 8.39844 20.8571 8.39844 20.6087C8.39844 20.3509 8.38906 19.6759 8.38437 18.7759C8.03705 18.8573 7.68173 18.8998 7.325 18.9024C5.30469 18.9024 4.84531 17.3321 4.84531 17.3321C4.36719 16.0899 3.67813 15.7571 3.67813 15.7571C2.76406 15.1149 3.67344 15.0962 3.74375 15.0962H3.74844C4.80313 15.1899 5.35625 16.2118 5.35625 16.2118C5.88125 17.1306 6.58437 17.3884 7.2125 17.3884C7.62783 17.3801 8.03673 17.2842 8.4125 17.1071C8.50625 16.4134 8.77812 15.9399 9.07812 15.6681C6.74844 15.3962 4.29688 14.4728 4.29688 10.3478C4.29688 9.17119 4.70469 8.21025 5.375 7.46025C5.26719 7.18838 4.90625 6.0915 5.47812 4.61025C5.55483 4.5919 5.63368 4.58401 5.7125 4.58682C6.09219 4.58682 6.95 4.73213 8.36563 5.7165C10.0857 5.23524 11.9049 5.23524 13.625 5.7165C15.0406 4.73213 15.8984 4.58682 16.2781 4.58682C16.3569 4.58401 16.4358 4.5919 16.5125 4.61025C17.0844 6.0915 16.7234 7.18838 16.6156 7.46025C17.2859 8.21494 17.6937 9.17588 17.6937 10.3478C17.6937 14.4821 15.2375 15.3915 12.8984 15.6587C13.2734 15.9915 13.6109 16.6478 13.6109 17.6509C13.6109 19.0899 13.5969 20.2524 13.5969 20.604C13.5969 20.8571 13.7422 21.1431 14.1312 21.1431C14.1942 21.1433 14.2571 21.1371 14.3187 21.1243C18.4953 19.6993 21.5 15.6634 21.5 10.9103C21.5 4.9665 16.7984 0.143066 11 0.143066Z" fill="#1E1E1E"/>
</svg>
